<svg width="75" height="62" viewBox="0 0 75 62" fill="none" xmlns="http://www.w3.org/2000/svg">
<path d="M7.95135 51.8455C7.95135 51.5632 7.91397 51.3557 7.83914 51.2229C7.76431 51.0846 7.61471 51.0154 7.39029 51.0154H7.22998V50.8494H10.6044C11.0586 50.8494 11.2857 51.0707 11.2857 51.5134V52.136H11.1254C11.1254 51.4996 10.7915 51.1814 10.1235 51.1814H8.67273V53.1736H9.55441C10.1422 53.1736 10.6418 53.2871 11.0533 53.514C11.4701 53.7409 11.6785 54.1531 11.6785 54.7508C11.6785 55.3485 11.4701 55.7608 11.0533 55.9877C10.6418 56.2146 10.1422 56.328 9.55441 56.328H7.95135V51.8455ZM9.43418 56.0375C9.88836 56.0375 10.241 55.9296 10.4922 55.7137C10.7487 55.4979 10.8769 55.177 10.8769 54.7508C10.8769 54.3247 10.7487 54.0037 10.4922 53.7879C10.241 53.5721 9.88836 53.4642 9.43418 53.4642C9.18302 53.4642 8.92922 53.5029 8.67273 53.5804V55.9213C8.92922 55.9988 9.18302 56.0375 9.43418 56.0375ZM14.1023 56.411C13.7389 56.411 13.4236 56.3225 13.1565 56.1454C12.8893 55.9628 12.6862 55.7165 12.5473 55.4066C12.4084 55.0967 12.3389 54.7536 12.3389 54.3773C12.3389 54.0009 12.4084 53.6579 12.5473 53.348C12.6862 53.038 12.8893 52.7946 13.1565 52.6175C13.4236 52.4348 13.7389 52.3435 14.1023 52.3435C14.4656 52.3435 14.7809 52.4348 15.0481 52.6175C15.3152 52.7946 15.5183 53.038 15.6572 53.348C15.7961 53.6579 15.8656 54.0009 15.8656 54.3773C15.8656 54.7536 15.7961 55.0967 15.6572 55.4066C15.5183 55.7165 15.3152 55.9628 15.0481 56.1454C14.7809 56.3225 14.4656 56.411 14.1023 56.411ZM14.1023 56.079C14.3 56.079 14.4736 56.0043 14.6233 55.8548C14.7782 55.7054 14.8958 55.5007 14.9759 55.2406C15.0614 54.9805 15.1042 54.6927 15.1042 54.3773C15.1042 54.0618 15.0614 53.7741 14.9759 53.514C14.8958 53.2539 14.7782 53.0491 14.6233 52.8997C14.4736 52.7503 14.3 52.6756 14.1023 52.6756C13.9045 52.6756 13.7282 52.7503 13.5733 52.8997C13.4236 53.0491 13.3061 53.2539 13.2206 53.514C13.1404 53.7741 13.1004 54.0618 13.1004 54.3773C13.1004 54.6927 13.1404 54.9805 13.2206 55.2406C13.3061 55.5007 13.4236 55.7054 13.5733 55.8548C13.7282 56.0043 13.9045 56.079 14.1023 56.079ZM16.5212 56.411C16.4785 56.411 16.4116 56.4027 16.3208 56.3861C16.2353 56.3695 16.1712 56.3529 16.1284 56.3363V56.1288C16.4384 56.1288 16.6895 55.9379 16.8819 55.556C17.0742 55.1742 17.1704 54.4631 17.1704 53.4227C17.1704 53.1404 17.1303 52.9329 17.0502 52.8001C16.9754 52.6618 16.8257 52.5926 16.6013 52.5926V52.4265H19.8555V56.328H19.1341V52.7586H17.7235V53.4227C17.7235 54.5571 17.6112 55.3402 17.3868 55.7718C17.1678 56.198 16.8792 56.411 16.5212 56.411ZM21.1211 53.4227C21.1211 53.1404 21.0837 52.9329 21.0089 52.8001C20.9341 52.6618 20.7845 52.5926 20.5601 52.5926H20.4398V52.4265H21.1211C21.3188 52.4265 21.4658 52.4542 21.562 52.5096C21.6635 52.5594 21.7356 52.6535 21.7784 52.7918C21.8211 52.9301 21.8425 53.1404 21.8425 53.4227V54.0037H22.4436C22.9513 54.0037 23.3521 54.0923 23.6459 54.2694C23.9398 54.4465 24.0868 54.7453 24.0868 55.1659C24.0868 55.5864 23.9398 55.8853 23.6459 56.0624C23.3521 56.2395 22.9513 56.328 22.4436 56.328H21.1211V53.4227ZM22.3635 56.0375C22.6788 56.0375 22.9165 55.9683 23.0769 55.8299C23.2425 55.6916 23.3253 55.4702 23.3253 55.1659C23.3253 54.8615 23.2425 54.6401 23.0769 54.5018C22.9165 54.3635 22.6788 54.2943 22.3635 54.2943C22.2833 54.2943 22.1925 54.3026 22.091 54.3192C21.9895 54.3358 21.9066 54.3552 21.8425 54.3773V55.9545C21.9066 55.9766 21.9895 55.996 22.091 56.0126C22.1925 56.0292 22.2833 56.0375 22.3635 56.0375ZM24.98 53.4227C24.98 53.1404 24.9426 52.9329 24.8678 52.8001C24.793 52.6618 24.6434 52.5926 24.419 52.5926H24.2987V52.4265H24.98C25.1778 52.4265 25.3247 52.4542 25.4209 52.5096C25.5224 52.5594 25.5946 52.6535 25.6373 52.7918C25.68 52.9301 25.7014 53.1404 25.7014 53.4227V55.996H26.9438V52.4265H27.6651V55.996H28.9075V52.4265H29.6289V56.328H24.98V53.4227ZM32.3323 56.411C31.9689 56.411 31.6536 56.3225 31.3865 56.1454C31.1193 55.9628 30.9162 55.7165 30.7773 55.4066C30.6384 55.0967 30.569 54.7536 30.569 54.3773C30.569 54.0009 30.6384 53.6579 30.7773 53.348C30.9162 53.038 31.1193 52.7946 31.3865 52.6175C31.6536 52.4348 31.9689 52.3435 32.3323 52.3435C32.6956 52.3435 33.0109 52.4348 33.2781 52.6175C33.5452 52.7946 33.7483 53.038 33.8873 53.348C34.0262 53.6579 34.0957 54.0009 34.0957 54.3773C34.0957 54.7536 34.0262 55.0967 33.8873 55.4066C33.7483 55.7165 33.5452 55.9628 33.2781 56.1454C33.0109 56.3225 32.6956 56.411 32.3323 56.411ZM32.3323 56.079C32.53 56.079 32.7036 56.0043 32.8533 55.8548C33.0082 55.7054 33.1258 55.5007 33.206 55.2406C33.2915 54.9805 33.3342 54.6927 33.3342 54.3773C33.3342 54.0618 33.2915 53.7741 33.206 53.514C33.1258 53.2539 33.0082 53.0491 32.8533 52.8997C32.7036 52.7503 32.53 52.6756 32.3323 52.6756C32.1346 52.6756 31.9582 52.7503 31.8033 52.8997C31.6536 53.0491 31.5361 53.2539 31.4506 53.514C31.3705 53.7741 31.3304 54.0618 31.3304 54.3773C31.3304 54.6927 31.3705 54.9805 31.4506 55.2406C31.5361 55.5007 31.6536 55.7054 31.8033 55.8548C31.9582 56.0043 32.1346 56.079 32.3323 56.079ZM35.1158 53.4227C35.1158 53.1404 35.0784 52.9329 35.0036 52.8001C34.9287 52.6618 34.7791 52.5926 34.5547 52.5926H34.4746V52.4265H37.1196C37.5204 52.4265 37.7207 52.6479 37.7207 53.0906V53.5887H37.5604C37.5604 53.3286 37.483 53.1266 37.328 52.9827C37.173 52.8333 36.97 52.7586 36.7188 52.7586H35.8372V56.328H35.1158V53.4227ZM39.7684 56.411C39.405 56.411 39.0897 56.3225 38.8226 56.1454C38.5554 55.9628 38.3523 55.7165 38.2134 55.4066C38.0744 55.0967 38.005 54.7536 38.005 54.3773C38.005 54.0009 38.0744 53.6579 38.2134 53.348C38.3523 53.038 38.5554 52.7946 38.8226 52.6175C39.0897 52.4348 39.405 52.3435 39.7684 52.3435C40.1317 52.3435 40.447 52.4348 40.7142 52.6175C40.9813 52.7946 41.1844 53.038 41.3233 53.348C41.4622 53.6579 41.5317 54.0009 41.5317 54.3773C41.5317 54.7536 41.4622 55.0967 41.3233 55.4066C41.1844 55.7165 40.9813 55.9628 40.7142 56.1454C40.447 56.3225 40.1317 56.411 39.7684 56.411ZM39.7684 56.079C39.966 56.079 40.1397 56.0043 40.2894 55.8548C40.4443 55.7054 40.5619 55.5007 40.642 55.2406C40.7275 54.9805 40.7703 54.6927 40.7703 54.3773C40.7703 54.0618 40.7275 53.7741 40.642 53.514C40.5619 53.2539 40.4443 53.0491 40.2894 52.8997C40.1397 52.7503 39.966 52.6756 39.7684 52.6756C39.5706 52.6756 39.3943 52.7503 39.2394 52.8997C39.0897 53.0491 38.9722 53.2539 38.8867 53.514C38.8065 53.7741 38.7665 54.0618 38.7665 54.3773C38.7665 54.6927 38.8065 54.9805 38.8867 55.2406C38.9722 55.5007 39.0897 55.7054 39.2394 55.8548C39.3943 56.0043 39.5706 56.079 39.7684 56.079ZM45.5335 52.7586H45.1328C44.8816 52.7586 44.6785 52.8333 44.5236 52.9827C44.3686 53.1266 44.2911 53.3286 44.2911 53.5887H44.1308V53.0906C44.1308 52.6479 44.3312 52.4265 44.732 52.4265H47.5774V52.7586H46.2549V56.328H45.5335V52.7586ZM49.629 56.411C49.2657 56.411 48.9584 56.3225 48.7072 56.1454C48.4561 55.9628 48.2664 55.7192 48.1381 55.4149C48.0099 55.105 47.9458 54.7591 47.9458 54.3773C47.9458 54.0009 48.0099 53.6579 48.1381 53.348C48.2664 53.038 48.4507 52.7946 48.6912 52.6175C48.937 52.4348 49.2229 52.3435 49.5488 52.3435C50.0885 52.3435 50.4893 52.5013 50.7511 52.8167C51.0183 53.1266 51.1519 53.5776 51.1519 54.1698L51.1358 54.5018H48.7072C48.7072 54.9666 48.8034 55.3457 48.9958 55.639C49.1881 55.9323 49.4526 56.079 49.7893 56.079C50.0404 56.079 50.2515 56.0237 50.4225 55.913C50.5988 55.8023 50.7618 55.6362 50.9114 55.4149L51.0717 55.5394C50.8954 55.8438 50.6897 56.0652 50.4545 56.2035C50.2195 56.3418 49.9443 56.411 49.629 56.411ZM50.3904 54.1698C50.3904 53.6828 50.321 53.312 50.182 53.0574C50.0431 52.8029 49.832 52.6756 49.5488 52.6756C49.3885 52.6756 49.2442 52.742 49.116 52.8748C48.9878 53.0021 48.8862 53.1791 48.8114 53.4061C48.742 53.633 48.7072 53.8875 48.7072 54.1698H50.3904ZM52.9736 56.411C52.8026 56.411 52.629 56.375 52.4526 56.3031C52.2763 56.2256 52.124 56.1011 51.9958 55.9296C51.8728 55.758 51.8114 55.5311 51.8114 55.2489C51.8114 54.8283 51.9984 54.5295 52.3725 54.3524C52.7518 54.1753 53.2462 54.0867 53.8553 54.0867H54.0958C54.0958 53.5444 54.0236 53.1736 53.8794 52.9744C53.7351 52.7752 53.5267 52.6756 53.2542 52.6756C53.0137 52.6756 52.8213 52.7282 52.6771 52.8333C52.5328 52.9384 52.4312 53.121 52.3725 53.3812H52.0118C52.0118 53.193 52.0224 53.0463 52.0439 52.9412C52.0652 52.8305 52.1213 52.7282 52.2122 52.6341C52.3084 52.5345 52.466 52.4625 52.6851 52.4182C52.9095 52.3684 53.1526 52.3435 53.4145 52.3435C53.8473 52.3435 54.1893 52.4653 54.4404 52.7088C54.6915 52.9467 54.8171 53.4061 54.8171 54.0867V56.328H54.4164L54.1358 55.9545H54.0958C53.9996 56.0818 53.8579 56.1897 53.671 56.2782C53.4839 56.3667 53.2515 56.411 52.9736 56.411ZM53.3343 56.0375C53.5107 56.0375 53.6576 55.9932 53.7752 55.9047C53.8927 55.8161 53.9996 55.6943 54.0958 55.5394V54.4188H53.8553C53.4599 54.4188 53.1473 54.4963 52.9175 54.6512C52.6877 54.8006 52.5729 54.9998 52.5729 55.2489C52.5729 55.5034 52.645 55.6999 52.7893 55.8382C52.9389 55.9711 53.1205 56.0375 53.3343 56.0375ZM56.9928 52.7586H56.5921C56.3409 52.7586 56.1379 52.8333 55.9829 52.9827C55.8279 53.1266 55.7505 53.3286 55.7505 53.5887H55.5902V53.0906C55.5902 52.6479 55.7905 52.4265 56.1913 52.4265H59.0365V52.7586H57.714V56.328H56.9928V52.7586ZM59.8512 53.4227C59.8512 53.1404 59.814 52.9329 59.739 52.8001C59.6645 52.6618 59.5145 52.5926 59.2901 52.5926H59.1298V52.4265H59.8512C60.0544 52.4265 60.2067 52.457 60.3081 52.5179C60.4151 52.5732 60.4901 52.6673 60.5325 52.8001H60.5726C60.6687 52.6728 60.805 52.5649 60.9813 52.4764C61.1577 52.3878 61.3821 52.3435 61.6546 52.3435C62.1144 52.3435 62.4699 52.5372 62.7207 52.9246C62.972 53.3065 63.0974 53.7907 63.0974 54.3773C63.0974 54.9694 62.9668 55.4564 62.7046 55.8382C62.4481 56.2201 62.0714 56.411 61.5745 56.411C61.3718 56.411 61.1926 56.3889 61.0374 56.3446C60.8829 56.3003 60.7277 56.2395 60.5726 56.162V57.9052H59.8512V53.4227ZM61.334 56.079C61.6764 56.079 61.9271 55.924 62.0874 55.6141C62.2535 55.3042 62.3359 54.8919 62.3359 54.3773C62.3359 53.8681 62.2586 53.4587 62.1035 53.1487C61.9489 52.8333 61.7187 52.6756 61.4142 52.6756C61.0563 52.6756 60.7758 52.8416 60.5726 53.1736V55.8299C60.7329 55.9074 60.872 55.9683 60.9894 56.0126C61.1073 56.0569 61.2218 56.079 61.334 56.079ZM64.9415 56.411C64.7708 56.411 64.5968 56.375 64.4205 56.3031C64.2441 56.2256 64.0918 56.1011 63.9636 55.9296C63.8411 55.758 63.7792 55.5311 63.7792 55.2489C63.7792 54.8283 63.9665 54.5295 64.3403 54.3524C64.7199 54.1753 65.214 54.0867 65.8231 54.0867H66.0636C66.0636 53.5444 65.9915 53.1736 65.8472 52.9744C65.7029 52.7752 65.4945 52.6756 65.222 52.6756C64.9815 52.6756 64.7892 52.7282 64.6449 52.8333C64.5006 52.9384 64.3993 53.121 64.3403 53.3812H63.9796C63.9796 53.193 63.9905 53.0463 64.0117 52.9412C64.0334 52.8305 64.0895 52.7282 64.18 52.6341C64.2762 52.5345 64.4342 52.4625 64.6529 52.4182C64.8773 52.3684 65.1206 52.3435 65.3823 52.3435C65.8151 52.3435 66.1575 52.4653 66.4082 52.7088C66.6596 52.9467 66.785 53.4061 66.785 54.0867V56.328H66.3842L66.1037 55.9545H66.0636C65.9674 56.0818 65.826 56.1897 65.6388 56.2782C65.4521 56.3667 65.2197 56.411 64.9415 56.411ZM65.3021 56.0375C65.4785 56.0375 65.6256 55.9932 65.743 55.9047C65.8609 55.8161 65.9674 55.6943 66.0636 55.5394V54.4188H65.8231C65.4281 54.4188 65.1155 54.4963 64.8853 54.6512C64.6558 54.8006 64.5407 54.9998 64.5407 55.2489C64.5407 55.5034 64.6128 55.6999 64.7571 55.8382C64.9071 55.9711 65.0886 56.0375 65.3021 56.0375Z" fill="white"/>
<path d="M18.3472 43.5207C18.3472 43.1175 18.2938 42.8211 18.1869 42.6313C18.08 42.4337 17.8663 42.3349 17.5457 42.3349H17.4312V41.9791H22.4579C23.1067 41.9791 23.4312 42.2953 23.4312 42.9278V43.9358H23.0876C23.0876 43.4377 22.9655 43.078 22.7212 42.8567C22.4846 42.6274 22.1296 42.5128 21.6563 42.5128H19.8357V45.2995H20.8663C21.8663 45.2995 22.6793 45.4616 23.3052 45.7857C23.9311 46.1019 24.2441 46.6909 24.2441 47.5526C24.2441 48.4143 23.9311 49.0073 23.3052 49.3314C22.6793 49.6476 21.8663 49.8058 20.8663 49.8058H18.3472V43.5207ZM20.6945 49.3314C21.3815 49.3314 21.8777 49.1931 22.1831 48.9164C22.4884 48.6318 22.6411 48.1772 22.6411 47.5526C22.6411 46.9281 22.4884 46.4775 22.1831 46.2008C21.8777 45.9162 21.3815 45.7739 20.6945 45.7739H20.6373C20.4083 45.7739 20.2174 45.7936 20.0647 45.8331L19.8357 45.8924V49.2128C19.9197 49.2444 19.996 49.2642 20.0647 49.2721C20.2327 49.3117 20.4235 49.3314 20.6373 49.3314H20.6945ZM25.4323 45.7739C25.4323 45.3707 25.3789 45.0742 25.272 44.8845C25.1651 44.6868 24.9514 44.588 24.6308 44.588H24.5163V44.2322H25.8903C26.1651 44.2322 26.375 44.2797 26.5201 44.3745C26.6651 44.4694 26.7681 44.6275 26.8292 44.8489C26.8903 45.0623 26.9208 45.3707 26.9208 45.7739V48.3234L28.9819 44.2322H30.3559V49.8058H28.8674V45.7146L26.8063 49.8058H25.4323V45.7739ZM31.8025 49.9836C31.688 49.9836 31.5621 49.9718 31.4247 49.9481C31.2873 49.9243 31.1842 49.9006 31.1155 49.8769V49.533C31.4132 49.4856 31.6651 49.3512 31.8712 49.1298C32.0773 48.9005 32.2415 48.5092 32.3636 47.9558C32.4934 47.3945 32.5583 46.6277 32.5583 45.6553C32.5583 45.3074 32.4972 45.0426 32.3751 44.8607C32.2605 44.6789 32.0354 44.588 31.6995 44.588V44.2322H36.8521V49.8058H35.3636V44.7659H33.7491V45.6553C33.7491 48.5409 33.1003 49.9836 31.8025 49.9836ZM40.6008 49.9243C40.0741 49.9243 39.6123 49.7979 39.2153 49.5449C38.8184 49.2919 38.5092 48.948 38.2879 48.5132C38.0741 48.0704 37.9672 47.5724 37.9672 47.019C37.9672 46.4024 38.0741 45.8766 38.2879 45.4418C38.5092 45.007 38.8107 44.6789 39.1924 44.4576C39.5741 44.2283 40.0054 44.1137 40.4863 44.1137C40.9596 44.1137 41.3871 44.2125 41.7688 44.4101C42.1504 44.6077 42.452 44.8884 42.6734 45.2521C42.8947 45.6078 43.0054 46.0189 43.0054 46.4854C43.0054 46.6356 42.9977 46.8055 42.9825 46.9953L42.9596 47.2325H39.513C39.513 47.9835 39.6237 48.5329 39.8451 48.8808C40.0664 49.2207 40.3756 49.3907 40.7726 49.3907C41.139 49.3907 41.4443 49.3077 41.6886 49.1417C41.9405 48.9678 42.181 48.7227 42.41 48.4064L42.765 48.6792C42.5436 49.0349 42.2649 49.3314 41.9291 49.5686C41.6008 49.8058 41.1581 49.9243 40.6008 49.9243ZM41.4596 46.6988C41.4596 45.9557 41.3756 45.43 41.2077 45.1216C41.0397 44.8054 40.7993 44.6473 40.4863 44.6473C40.1962 44.6473 39.9596 44.8093 39.7764 45.1335C39.6008 45.4497 39.513 45.9715 39.513 46.6988H41.4596ZM45.3961 44.7659H45.0526C44.6938 44.7659 44.4229 44.8647 44.2397 45.0623C44.0564 45.26 43.9648 45.5762 43.9648 46.011H43.6213V45.1809C43.6213 44.5484 43.9076 44.2322 44.4801 44.2322H48.6137V44.7659H46.8847V49.8058H45.3961V44.7659ZM49.619 45.7739C49.619 45.3707 49.5656 45.0742 49.4587 44.8845C49.3518 44.6868 49.1381 44.588 48.8175 44.588H48.703V44.2322H50.077C50.3518 44.2322 50.5618 44.2797 50.7068 44.3745C50.8518 44.4694 50.9548 44.6275 51.0159 44.8489C51.077 45.0623 51.1075 45.3707 51.1075 45.7739V46.4854H51.8518C52.577 46.4854 53.1495 46.6316 53.5694 46.9241C53.9892 47.2087 54.1991 47.6159 54.1991 48.1456C54.1991 48.6752 53.9892 49.0864 53.5694 49.3788C53.1495 49.6634 52.577 49.8058 51.8518 49.8058H49.619V45.7739ZM55.8022 49.8058C55.5274 49.8058 55.3174 49.7623 55.1724 49.6753C55.0274 49.5804 54.9244 49.4263 54.8633 49.2128C54.8022 48.9915 54.7717 48.6752 54.7717 48.2641V44.2322H56.2602V48.2641C56.2602 48.6673 56.3136 48.9678 56.4205 49.1654C56.5274 49.3551 56.7411 49.45 57.0617 49.45H57.1762V49.8058H55.8022ZM51.6228 49.3314C51.9129 49.3314 52.1571 49.2405 52.3556 49.0587C52.5541 48.8689 52.6533 48.5646 52.6533 48.1456C52.6533 47.7265 52.5541 47.4262 52.3556 47.2443C52.1571 47.0546 51.9129 46.9597 51.6228 46.9597C51.4396 46.9597 51.2678 46.9874 51.1075 47.0427V49.2484C51.2678 49.3037 51.4396 49.3314 51.6228 49.3314Z" fill="#CFB368"/>
<path d="M37.4999 6.04602L69.976 13.2868H5.02393L37.4999 6.04602Z" fill="#CFB368"/>
<path d="M56.5714 7.45288H19.2856V11.9088H56.5714V7.45288Z" fill="#C4C4C4"/>
<path d="M69.1522 13.713H5.7251V39.1649H69.1522V13.713Z" fill="#B11733" stroke="#CFB368" stroke-width="2"/>
<path d="M19.1416 18.3807H16.9988V31.377H19.1416V18.3807Z" fill="#CFB368"/>
<path d="M24.7132 18.3807H22.5703V31.377H24.7132V18.3807Z" fill="#CFB368"/>
<path d="M30.2847 18.3807H28.1418V31.377H30.2847V18.3807Z" fill="#CFB368"/>
<path d="M35.856 18.3807H33.7131V31.377H35.856V18.3807Z" fill="#CFB368"/>
<path d="M41.4275 18.3807H39.2847V31.377H41.4275V18.3807Z" fill="#CFB368"/>
<path d="M46.9988 18.3807H44.856V31.377H46.9988V18.3807Z" fill="#CFB368"/>
<path d="M52.5704 18.3807H50.4275V31.377H52.5704V18.3807Z" fill="#CFB368"/>
<path d="M58.1416 18.3807H55.9988V31.377H58.1416V18.3807Z" fill="#CFB368"/>
<path d="M57.7133 6.16284H18.144V12.4035H57.7133V6.16284Z" fill="#B11733" stroke="#CFB368" stroke-width="2"/>
<path d="M20.9211 15.4096L37.7144 9.7677L54.5076 15.4096H20.9211Z" fill="#B11733" stroke="#CFB368" stroke-width="2"/>
<path d="M37.9286 0L58.1565 5.56984H17.7007L37.9286 0Z" fill="#CFB368"/>
<path d="M11.5713 36.5654H63.4287" stroke="#CFB368" stroke-width="2"/>
<path d="M16.2856 33.9663H59.1429" stroke="#CFB368" stroke-width="2"/>
<path d="M9.16042 46.8412C9.79281 46.8412 10.3055 46.3103 10.3055 45.6553C10.3055 45.0004 9.79281 44.4695 9.16042 44.4695C8.52803 44.4695 8.01538 45.0004 8.01538 45.6553C8.01538 46.3103 8.52803 46.8412 9.16042 46.8412Z" fill="#CFB368"/>
<path d="M64.1221 46.8412C64.7545 46.8412 65.2671 46.3103 65.2671 45.6553C65.2671 45.0004 64.7545 44.4695 64.1221 44.4695C63.4897 44.4695 62.9771 45.0004 62.9771 45.6553C62.9771 46.3103 63.4897 46.8412 64.1221 46.8412Z" fill="#CFB368"/>
</svg>
